<?xml version="1.0" encoding="UTF-8"?>
<svg xmlns="http://www.w3.org/2000/svg" viewBox="0 0 260 261" role="img" aria-label="Google">
  <title>Google G</title>
  <path fill="#4285F4" d="M255.0 133.2c0-8.6-.7-17-2.2-25.0H130v47.4h70.6c-3 16.3-12.1 30.1-25.7 39.4v32h41.6c24.3-22.4 38.5-55.4 38.5-93.8z"/>
  <path fill="#34A853" d="M130 261c34.9 0 64.2-11.6 85.6-31.6l-41.6-32c-11.6 7.8-26.4 12.4-44 12.4-33.9 0-62.7-22.9-73-54.1H13.8v34.0C35.2 231.9 78.6 261 130 261z"/>
  <path fill="#FBBC05" d="M57 160.7c-4.9-14.6-4.9-30.3 0-44.9V81.8H13.8C5 102.9 0 127.2 0 151.1s5 48.2 13.8 69.3L57 160.7z"/>
  <path fill="#EA4335" d="M130 52.1c18.7 0 35.6 6.4 48.9 18.9l36.7-36.7C194.9 14.8 164.9 0 130 0 78.6 0 35.2 29.1 13.8 72.3l43.2 34.6C67.3 75 96.1 52.1 130 52.1z"/>
</svg>
